HIERARCHY
ROOT ui
{
	 OFFSET 0 0 0
	 CHANNELS 3 XPosition YPosition Z Position
	 EndSite
	 {
	 OFFSET 0 -1 0
	 }
}
ROOT li
{
	 OFFSET 0 0 0
	 CHANNELS 3 XPosition YPosition Z Position
	 EndSite
	 {
	 OFFSET 0 -1 0
	 }
}
ROOT ul
{
	 OFFSET 0 0 0
	 CHANNELS 3 XPosition YPosition Z Position
	 EndSite
	 {
	 OFFSET 0 -1 0
	 }
}
ROOT ll
{
	 OFFSET 0 0 0
	 CHANNELS 3 XPosition YPosition Z Position
	 EndSite
	 {
	 OFFSET 0 -1 0
	 }
}
ROOT tt
{
	 OFFSET 0 0 0
	 CHANNELS 3 XPosition YPosition Z Position
	 EndSite
	 {
	 OFFSET 0 -1 0
	 }
}
ROOT tb
{
	 OFFSET 0 0 0
	 CHANNELS 3 XPosition YPosition Z Position
	 EndSite
	 {
	 OFFSET 0 -1 0
	 }
}
ROOT td
{
	 OFFSET 0 0 0
	 CHANNELS 3 XPosition YPosition Z Position
	 EndSite
	 {
	 OFFSET 0 -1 0
	 }
}
ROOT v
{
	 OFFSET 0 0 0
	 CHANNELS 3 XPosition YPosition Z Position
	 EndSite
	 {
	 OFFSET 0 -1 0
	 }
}
ROOT bn
{
	 OFFSET 0 0 0
	 CHANNELS 3 XPosition YPosition Z Position
	 EndSite
	 {
	 OFFSET 0 -1 0
	 }
}
MOTION
Frames: 21
Frame Time: 0.002
-0.007676853179931641	-1.2735199928283692E-4	0		0.65474755859375	-2.49134619140625	0		-1.0206382446289062	-0.17831617736816407	0		-0.4280666809082031	-2.561782470703125	0		2.1608642578125	-1.08435546875	0		3.493725830078125	0.11247402191162109	0		4.7190791015625	0.5134066162109375	0		5.90864306640625	0.5224637451171875	0		-0.401508544921875	5.821412109375	0		
-0.010895594596862793	-0.002675745964050293	0		0.6026731567382813	-2.485357666015625	0		-1.0878599853515625	-0.18120513916015624	0		-0.4281957702636719	-2.56137255859375	0		2.167466796875	-1.10596044921875	0		3.4903447265625	0.09500554656982421	0		4.7238056640625	0.5068798828125	0		5.9042978515625	0.5391022338867187	0		-0.4348996887207031	5.8151748046875	0		
0.016944604873657225	4.7148001194000246E-4	0		0.6243624267578125	-2.500135498046875	0		-1.0780584716796875	-0.18188357543945313	0		-0.45926809692382814	-2.5536044921875	0		2.1580078125	-1.13238232421875	0		3.519810546875	0.0631903305053711	0		4.731595703125	0.5063171081542969	0		5.9132666015625	0.5017431945800781	0		-0.4322164001464844	5.81258154296875	0		
-0.005211842060089111	0.004178226947784424	0		0.6193685913085938	-2.483604248046875	0		-1.0742144775390625	-0.17846441650390624	0		-0.42244451904296876	-2.554529541015625	0		2.190763916015625	-1.1382381591796875	0		3.514801513671875	0.08075101470947266	0		4.742400390625	0.5067209167480469	0		5.91187109375	0.5407603759765625	0		-0.43246490478515626	5.8130498046875	0		
0.016569156646728516	0.0014455660581588745	0		0.665052734375	-2.496588623046875	0		-1.0953558349609376	-0.17374502563476563	0		-0.47051028442382814	-2.543520751953125	0		2.195306396484375	-1.163779296875	0		3.508264892578125	0.04833294296264649	0		4.7481376953125	0.5001791381835937	0		5.9081044921875	0.5261947631835937	0		-0.4127302551269531	5.8083369140625	0		
-0.008609715461730958	0.0022411489486694335	0		0.6119044799804687	-2.492496337890625	0		-1.082654052734375	-0.18435153198242188	0		-0.42886593627929687	-2.55943603515625	0		2.23194189453125	-1.1806444091796875	0		3.522945556640625	0.0357000732421875	0		4.73374609375	0.48085354614257814	0		5.90797607421875	0.5270996704101563	0		-0.42702011108398436	5.7980166015625	0		
0.013172454833984375	-0.0014339380264282227	0		0.6356602172851562	-2.497196533203125	0		-1.078786865234375	-0.17982884216308595	0		-0.4660433654785156	-2.557481201171875	0		2.19560302734375	-1.1947159423828124	0		3.5295478515625	0.015163273811340331	0		4.74256396484375	0.48028671264648437	0		5.91274609375	0.5053836975097656	0		-0.4461140441894531	5.80277978515625	0		
-0.008951704025268554	0.0033871009349823	0		0.6234544677734375	-2.497488525390625	0		-1.058000732421875	-0.18345307922363283	0		-0.42925253295898436	-2.55828271484375	0		2.249141845703125	-1.220726806640625	0		3.53033740234375	0.011700735092163086	0		4.74631591796875	0.47277896118164064	0		5.91331689453125	0.5010765380859376	0		-0.4301331787109375	5.811201171875	0		
0.01588420104980469	0.0037357020378112793	0		0.6232528686523438	-2.49688330078125	0		-1.1260770263671875	-0.17409686279296874	0		-0.49938714599609374	-2.550914794921875	0		2.2489599609375	-1.220146728515625	0		3.542779541015625	-0.024875703811645507	0		4.75209619140625	0.4672564697265625	0		5.91320068359375	0.5019798889160156	0		-0.3951647644042969	5.81544921875	0		
-0.009273277282714844	0.004644250869750977	0		0.611109619140625	-2.4901259765625	0		-1.1222076416015625	-0.17047586059570313	0		-0.43370684814453125	-2.5609677734375	0		2.245552978515625	-1.240515869140625	0		3.561640380859375	-0.022506647109985352	0		4.746861328125	0.45985873413085937	0		5.913087890625	0.5028873596191407	0		-0.40931549072265627	5.8062490234375	0		
0.01252524757385254	0.0010756230354309082	0		0.6088721923828125	-2.491452392578125	0		-1.1094769287109374	-0.17992160034179688	0		-0.4699118347167969	-2.55890576171875	0		2.24029150390625	-1.246848388671875	0		3.55612939453125	-0.05486856460571289	0		4.75264990234375	0.454349609375	0		5.9171865234375	0.48811724853515626	0		-0.4093363342285156	5.80692529296875	0		
-0.002729469060897827	-0.007074719905853272	0		0.6185477905273438	-2.49988720703125	0		-1.0915882568359374	-0.17439625549316407	0		-0.42630447387695314	-2.57367578125	0		2.245819091796875	-1.2722841796875	0		3.55376513671875	-0.07325490570068359	0		4.747267578125	0.432962890625	0		5.9093740234375	0.5220978393554687	0		-0.47746121215820314	5.79635546875	0		
-0.0028938159942626953	-0.00636678695678711	0		0.6203379516601563	-2.496220458984375	0		-1.1456470947265625	-0.16307362365722655	0		-0.479502685546875	-2.56838427734375	0		2.259452880859375	-1.286796142578125	0		3.5752744140625	-0.10289292907714843	0		4.75203076171875	0.42546939086914065	0		5.9134443359375	0.5021304931640626	0		-0.4603703308105469	5.80389501953125	0		
-0.006893966197967529	0.010400954246520997	0		0.675064453125	-2.497110595703125	0		-1.0408101806640624	-0.1614426727294922	0		-0.45063674926757813	-2.555956298828125	0		2.2592353515625	-1.2861490478515625	0		3.593107666015625	-0.10148592376708984	0		4.7618720703125	0.42592208862304687	0		5.91332177734375	0.5030276794433594	0		-0.39223809814453126	5.8139013671875	0		
-0.0032519969940185546	-0.004899696826934814	0		0.61191943359375	-2.48371240234375	0		-1.1169857177734375	-0.15883839416503906	0		-0.45396090698242186	-2.5591650390625	0		2.2838271484375	-1.3017625732421876	0		3.567443603515625	-0.1446061553955078	0		4.76441015625	0.39945339965820315	0		5.90900439453125	0.5247932739257812	0		-0.4413528747558594	5.801189453125	0		
-0.0034506490230560303	-0.004143436908721924	0		0.668411376953125	-2.502599609375	0		-1.031228271484375	-0.16197279357910158	0		-0.466163330078125	-2.5492607421875	0		2.28929345703125	-1.3271617431640625	0		3.569097900390625	-0.15701400756835937	0		4.76016259765625	0.39406240844726564	0		5.9101201171875	0.48759271240234375	0		-0.40627737426757815	5.80558203125	0		
-0.020629711151123047	-1.8840299546718598E-4	0		0.619183837890625	-2.49332373046875	0		-1.08433544921875	-0.15058189392089844	0		-0.4545820922851562	-2.557602294921875	0		2.29290478515625	-1.337531494140625	0		3.605494140625	-0.19179644775390625	0		4.7547265625	0.37268780517578126	0		5.9177900390625	0.4830931091308594	0		-0.43932061767578123	5.7997294921875	0		
0.014032858848571778	-0.009788511276245117	0		0.6697811279296875	-2.499127197265625	0		-1.0764913330078125	-0.14284085083007814	0		-0.47290673828125	-2.55560302734375	0		2.29953271484375	-1.3449251708984375	0		3.59037060546875	-0.18100698852539063	0		4.75942919921875	0.36520919799804685	0		5.92127392578125	0.5012018737792969	0		-0.42517483520507815	5.81137646484375	0		
-0.010981945991516114	0.011279789924621583	0		0.6146689453125	-2.4767578125	0		-1.106643798828125	-0.13366853332519532	0		-0.4481693115234375	-2.54706298828125	0		2.292127685546875	-1.354154296875	0		3.604663330078125	-0.22253347778320312	0		4.76514306640625	0.3597278747558594	0		5.9174619140625	0.4849158630371094	0		-0.3901117858886719	5.8158046875	0		
0.00769691801071167	0.004878880977630615	0		0.6612020263671875	-2.486495849609375	0		-1.06890625	-0.13423095703125	0		-0.4485259704589844	-2.546234619140625	0		2.284714111328125	-1.363370361328125	0		3.628342529296875	-0.22815087890625	0		4.7666064453125	0.33230322265625	0		5.9172890625	0.4858534851074219	0		-0.40322747802734377	5.80477490234375	0		
-0.004615560054779053	-1.6692699491977693E-4	0		0.6198136596679688	-2.488249267578125	0		-1.057037841796875	-0.12249616241455077	0		-0.4159548645019531	-2.551759521484375	0		2.2793291015625	-1.36959521484375	0		3.6206533203125	-0.26641143798828126	0		4.75823046875	0.3200014343261719	0		5.90998095703125	0.48700555419921876	0		-0.3900833740234375	5.81746875	0		
